<svg width="106" height="38" viewBox="0 0 106 38" fill="none" xmlns="http://www.w3.org/2000/svg">
<path d="M50.505 27.743C49.659 27.743 48.831 27.671 48.021 27.527C47.211 27.383 46.455 27.176 45.753 26.906C45.069 26.636 44.448 26.294 43.89 25.88C43.674 25.718 43.521 25.538 43.431 25.34C43.359 25.124 43.341 24.917 43.377 24.719C43.431 24.503 43.521 24.323 43.647 24.179C43.791 24.035 43.962 23.954 44.16 23.936C44.358 23.918 44.574 23.981 44.808 24.125C45.618 24.701 46.482 25.124 47.4 25.394C48.318 25.646 49.353 25.772 50.505 25.772C52.125 25.772 53.322 25.475 54.096 24.881C54.888 24.269 55.284 23.468 55.284 22.478C55.284 21.668 54.996 21.038 54.42 20.588C53.862 20.12 52.917 19.751 51.585 19.481L48.777 18.914C47.085 18.554 45.816 17.969 44.97 17.159C44.142 16.331 43.728 15.233 43.728 13.865C43.728 13.019 43.899 12.254 44.241 11.57C44.583 10.868 45.06 10.274 45.672 9.788C46.284 9.284 47.013 8.897 47.859 8.627C48.705 8.357 49.641 8.222 50.667 8.222C51.801 8.222 52.854 8.384 53.826 8.708C54.816 9.014 55.707 9.482 56.499 10.112C56.697 10.274 56.832 10.463 56.904 10.679C56.976 10.877 56.985 11.075 56.931 11.273C56.877 11.453 56.778 11.606 56.634 11.732C56.508 11.858 56.337 11.93 56.121 11.948C55.923 11.966 55.698 11.894 55.446 11.732C54.726 11.192 53.979 10.805 53.205 10.571C52.431 10.319 51.576 10.193 50.64 10.193C49.686 10.193 48.858 10.337 48.156 10.625C47.472 10.913 46.932 11.336 46.536 11.894C46.158 12.434 45.969 13.064 45.969 13.784C45.969 14.648 46.23 15.332 46.752 15.836C47.292 16.34 48.165 16.709 49.371 16.943L52.179 17.537C53.997 17.915 55.338 18.491 56.202 19.265C57.084 20.021 57.525 21.056 57.525 22.37C57.525 23.162 57.363 23.891 57.039 24.557C56.715 25.223 56.247 25.799 55.635 26.285C55.023 26.753 54.285 27.113 53.421 27.365C52.557 27.617 51.585 27.743 50.505 27.743ZM65.8756 27.743C64.8496 27.743 63.9856 27.563 63.2836 27.203C62.5996 26.825 62.0866 26.285 61.7446 25.583C61.4026 24.863 61.2316 23.99 61.2316 22.964V16.079H59.4226C59.1166 16.079 58.8826 16.007 58.7206 15.863C58.5586 15.701 58.4776 15.485 58.4776 15.215C58.4776 14.945 58.5586 14.738 58.7206 14.594C58.8826 14.45 59.1166 14.378 59.4226 14.378H61.2316V11.273C61.2316 10.913 61.3306 10.643 61.5286 10.463C61.7266 10.265 61.9966 10.166 62.3386 10.166C62.6806 10.166 62.9416 10.265 63.1216 10.463C63.3196 10.643 63.4186 10.913 63.4186 11.273V14.378H66.8206C67.1266 14.378 67.3606 14.45 67.5226 14.594C67.6846 14.738 67.7656 14.945 67.7656 15.215C67.7656 15.485 67.6846 15.701 67.5226 15.863C67.3606 16.007 67.1266 16.079 66.8206 16.079H63.4186V22.748C63.4186 23.774 63.6346 24.557 64.0666 25.097C64.4986 25.619 65.2006 25.88 66.1726 25.88C66.5146 25.88 66.8026 25.844 67.0366 25.772C67.2886 25.7 67.4956 25.664 67.6576 25.664C67.8196 25.646 67.9546 25.7 68.0626 25.826C68.1706 25.952 68.2246 26.168 68.2246 26.474C68.2246 26.69 68.1796 26.888 68.0896 27.068C68.0176 27.248 67.8826 27.374 67.6846 27.446C67.4686 27.518 67.1806 27.581 66.8206 27.635C66.4786 27.707 66.1636 27.743 65.8756 27.743ZM75.3722 27.743C74.0942 27.743 72.9872 27.464 72.0512 26.906C71.1152 26.348 70.3862 25.565 69.8642 24.557C69.3602 23.531 69.1082 22.325 69.1082 20.939C69.1082 19.895 69.2522 18.959 69.5402 18.131C69.8282 17.285 70.2512 16.565 70.8092 15.971C71.3672 15.377 72.0242 14.927 72.7802 14.621C73.5542 14.297 74.4182 14.135 75.3722 14.135C76.6502 14.135 77.7572 14.414 78.6932 14.972C79.6292 15.53 80.3492 16.322 80.8532 17.348C81.3752 18.356 81.6362 19.553 81.6362 20.939C81.6362 21.983 81.4922 22.919 81.2042 23.747C80.9162 24.575 80.4932 25.295 79.9352 25.907C79.3772 26.501 78.7112 26.96 77.9372 27.284C77.1812 27.59 76.3262 27.743 75.3722 27.743ZM75.3722 25.988C76.1822 25.988 76.8932 25.79 77.5052 25.394C78.1172 24.998 78.5852 24.422 78.9092 23.666C79.2512 22.91 79.4222 22.001 79.4222 20.939C79.4222 19.301 79.0532 18.05 78.3152 17.186C77.5952 16.322 76.6142 15.89 75.3722 15.89C74.5442 15.89 73.8242 16.088 73.2122 16.484C72.6182 16.862 72.1502 17.429 71.8082 18.185C71.4842 18.923 71.3222 19.841 71.3222 20.939C71.3222 22.559 71.6912 23.81 72.4292 24.692C73.1672 25.556 74.1482 25.988 75.3722 25.988ZM86.0551 27.689C85.6951 27.689 85.4251 27.59 85.2451 27.392C85.0651 27.194 84.9751 26.915 84.9751 26.555V15.296C84.9751 14.936 85.0651 14.666 85.2451 14.486C85.4251 14.288 85.6861 14.189 86.0281 14.189C86.3701 14.189 86.6311 14.288 86.8111 14.486C87.0091 14.666 87.1081 14.936 87.1081 15.296V17.672L86.8111 17.294C87.1531 16.286 87.7021 15.512 88.4581 14.972C89.2321 14.414 90.1501 14.135 91.2121 14.135C92.3281 14.135 93.2281 14.405 93.9121 14.945C94.6141 15.467 95.0821 16.286 95.3161 17.402H94.9111C95.2351 16.394 95.8111 15.602 96.6391 15.026C97.4851 14.432 98.4661 14.135 99.5821 14.135C100.572 14.135 101.382 14.324 102.012 14.702C102.66 15.08 103.146 15.656 103.47 16.43C103.794 17.186 103.956 18.149 103.956 19.319V26.555C103.956 26.915 103.857 27.194 103.659 27.392C103.479 27.59 103.209 27.689 102.849 27.689C102.507 27.689 102.237 27.59 102.039 27.392C101.859 27.194 101.769 26.915 101.769 26.555V19.427C101.769 18.221 101.562 17.339 101.148 16.781C100.734 16.205 100.032 15.917 99.0421 15.917C97.9621 15.917 97.1071 16.295 96.4771 17.051C95.8651 17.789 95.5591 18.797 95.5591 20.075V26.555C95.5591 26.915 95.4601 27.194 95.2621 27.392C95.0821 27.59 94.8121 27.689 94.4521 27.689C94.1101 27.689 93.8401 27.59 93.6421 27.392C93.4621 27.194 93.3721 26.915 93.3721 26.555V19.427C93.3721 18.221 93.1561 17.339 92.7241 16.781C92.3101 16.205 91.6171 15.917 90.6451 15.917C89.5651 15.917 88.7101 16.295 88.0801 17.051C87.4681 17.789 87.1621 18.797 87.1621 20.075V26.555C87.1621 27.311 86.7931 27.689 86.0551 27.689Z" fill="black"/>
<path d="M27.0187 23.0396C28.6076 23.9627 29.1694 26.03 27.9387 27.3945C26.3288 29.1794 24.3282 30.5905 22.0756 31.5071C18.7887 32.8447 15.1508 33.0539 11.7322 32.102C8.3136 31.1501 5.30739 29.091 3.18466 26.2472C1.06194 23.4034 -0.0573268 19.9357 0.0022604 16.3876C0.0618476 12.8394 1.29692 9.41127 3.51394 6.64037C5.73095 3.86948 8.80462 1.91241 12.2533 1.07587C15.7019 0.239324 19.3307 0.570573 22.5709 2.01771C24.7914 3.00946 26.7435 4.4869 28.2925 6.32488C29.4767 7.72998 28.8458 9.77724 27.2269 10.6465C25.6079 11.5157 23.6173 10.8425 22.2398 9.62635C21.5325 9.00189 20.7304 8.48356 19.8572 8.0936C17.9619 7.2471 15.8392 7.05333 13.8219 7.54267C11.8046 8.03201 10.0067 9.1768 8.70983 10.7976C7.41298 12.4185 6.69052 14.4238 6.65566 16.4993C6.62081 18.5748 7.27553 20.6032 8.51722 22.2667C9.75891 23.9302 11.5174 25.1347 13.5171 25.6915C15.5169 26.2483 17.6448 26.1259 19.5675 25.3435C20.4533 24.9831 21.2724 24.492 22.0003 23.8917C23.4178 22.7224 25.4299 22.1165 27.0187 23.0396Z" fill="#018B67"/>
<path d="M20.6817 19.3574C21.6538 19.9222 21.999 21.1961 21.1918 21.9785C20.5141 22.6355 19.7125 23.1614 18.8266 23.5219C17.3071 24.1402 15.6253 24.2369 14.0449 23.7969C12.4645 23.3568 11.0747 22.4049 10.0934 21.0902C9.11203 19.7755 8.59459 18.1724 8.62214 16.5321C8.64969 14.8918 9.22066 13.307 10.2456 12.026C11.2705 10.745 12.6915 9.84025 14.2858 9.45352C15.8801 9.06678 17.5576 9.21992 19.0556 9.88893C19.9288 10.2789 20.7123 10.8315 21.3676 11.5108C22.1481 12.3199 21.7603 13.5815 20.7698 14.1133C19.7794 14.6451 18.5453 14.184 17.5423 13.6761C17.494 13.6516 17.445 13.6283 17.3954 13.6061C16.7202 13.3046 15.9641 13.2356 15.2455 13.4099C14.5268 13.5842 13.8864 13.992 13.4244 14.5694C12.9624 15.1468 12.7051 15.8611 12.6926 16.6005C12.6802 17.3398 12.9135 18.0624 13.3558 18.655C13.7981 19.2475 14.4245 19.6766 15.1369 19.875C15.8492 20.0733 16.6073 20.0297 17.2922 19.751C17.3426 19.7305 17.3923 19.7088 17.4414 19.686C18.4608 19.2121 19.7097 18.7927 20.6817 19.3574Z" fill="#FFBF4B"/>
</svg>
