<svg width="18" height="10" viewBox="0 0 18 10" fill="none" xmlns="http://www.w3.org/2000/svg">
<path d="M2.28965 6.09833C2.21505 6.30201 2.06396 6.46858 1.8685 6.56263C1.67304 6.65669 1.44861 6.67082 1.24289 6.60203C1.03717 6.53324 0.866383 6.38695 0.766812 6.19424C0.667242 6.00153 0.646737 5.77759 0.709655 5.57C0.740179 5.47855 0.774656 5.3868 0.812989 5.29833C0.879655 5.14 0.977988 4.92167 1.11299 4.66333C1.38799 4.14667 1.81632 3.45833 2.44799 2.77C3.72299 1.37833 5.81132 0 8.99965 0C12.188 0 14.2763 1.37833 15.5513 2.77C16.2314 3.51702 16.7832 4.37131 17.1847 5.29833L17.2613 5.48667C17.2663 5.5 17.283 5.58667 17.2997 5.67L17.333 5.83333C17.333 5.83333 17.473 6.38833 16.763 6.62333C16.5539 6.69316 16.3257 6.67729 16.1282 6.57921C15.9308 6.48112 15.7803 6.30881 15.7097 6.1V6.095L15.6997 6.06833L15.648 5.93833C15.3206 5.18959 14.873 4.49938 14.323 3.895C13.3063 2.79 11.6447 1.66667 8.99965 1.66667C6.35466 1.66667 4.69299 2.78833 3.67632 3.89667C3.12644 4.50054 2.67888 5.19017 2.35132 5.93833L2.30132 6.06833L2.28965 6.09833ZM8.99965 3.33333C8.1156 3.33333 7.26775 3.68452 6.64263 4.30964C6.01751 4.93476 5.66632 5.78261 5.66632 6.66667C5.66632 7.55072 6.01751 8.39857 6.64263 9.02369C7.26775 9.64881 8.1156 10 8.99965 10C9.88371 10 10.7316 9.64881 11.3567 9.02369C11.9818 8.39857 12.333 7.55072 12.333 6.66667C12.333 5.78261 11.9818 4.93476 11.3567 4.30964C10.7316 3.68452 9.88371 3.33333 8.99965 3.33333ZM7.33299 6.66667C7.33299 6.22464 7.50858 5.80072 7.82114 5.48816C8.1337 5.17559 8.55763 5 8.99965 5C9.44168 5 9.86561 5.17559 10.1782 5.48816C10.4907 5.80072 10.6663 6.22464 10.6663 6.66667C10.6663 7.10869 10.4907 7.53262 10.1782 7.84518C9.86561 8.15774 9.44168 8.33333 8.99965 8.33333C8.55763 8.33333 8.1337 8.15774 7.82114 7.84518C7.50858 7.53262 7.33299 7.10869 7.33299 6.66667Z" fill="#018B67"/>
</svg>
